Coordinates
version=1
nRows=8
nColumns=40
inDegrees=yes

Units are S.I. units (second, meters, Newtons, ...)
Angles are in degrees.

endheader
time	pelvis_tilt	pelvis_list	pelvis_rotation	pelvis_tx	pelvis_ty	pelvis_tz	hip_flexion_r	hip_adduction_r	hip_rotation_r	knee_angle_r	knee_angle_r_beta	ankle_angle_r	subtalar_angle_r	mtp_angle_r	hip_flexion_l	hip_adduction_l	hip_rotation_l	knee_angle_l	knee_angle_l_beta	ankle_angle_l	subtalar_angle_l	mtp_angle_l	lumbar_extension	lumbar_bending	lumbar_rotation	arm_flex_r	arm_add_r	arm_rot_r	elbow_flex_r	pro_sup_r	wrist_flex_r	wrist_dev_r	arm_flex_l	arm_add_l	arm_rot_l	elbow_flex_l	pro_sup_l	wrist_flex_l	wrist_dev_l
     53.22500000	     -1.76753374	     -6.19197857	     -1.48595358	      1.05359478	      0.92583263	      0.50508514	     16.90609219	      2.27097284	    -13.09579637	     20.56979216	     20.56979216	      7.42004984	      0.00681398	     -5.73434741	     10.61447176	    -14.58447797	     -4.52875006	     43.91548206	     43.91548206	     13.62556630	    -17.80701138	      1.04905548	     -9.63859689	      6.85080663	      2.58686518	      4.39671585	    -13.03786643	     -7.65741380	     33.95885259	     46.30153753	      0.00000000	      0.00000000	      6.83430778	    -12.66307337	     -1.96772028	     62.53020492	     46.66209836	      0.00000000	      0.00000000
     53.23800000	     -1.64841479	     -6.35545830	     -1.24443405	      1.05334269	      0.92609318	      0.50782328	     16.36927015	      2.56810916	    -13.41661319	     20.51066818	     20.51066818	      7.82439720	      0.20212234	     -5.87378197	     12.58760082	    -15.10289160	     -3.46825006	     47.64227519	     47.64227519	     12.19263974	    -18.23413577	      1.44931259	     -9.71677281	      6.95021868	      2.70429667	      5.39046059	    -13.10609345	     -7.32964484	     34.51138861	     46.26141388	      0.00000000	      0.00000000	      6.62693760	    -12.53916013	     -1.80109925	     62.29183088	     46.64963068	      0.00000000	      0.00000000
     53.25100000	     -1.40724395	     -6.48354023	     -1.00348639	      1.05297590	      0.92646592	      0.51030891	     15.72041919	      2.82292023	    -13.70078543	     20.47534021	     20.47534021	      8.25647153	      0.33533862	     -6.01222044	     14.36749807	    -15.50189372	     -2.46732398	     51.02499289	     51.02499289	     10.74354690	    -18.53368724	      1.86670090	    -10.01077162	      7.05181456	      2.98053864	      6.49317866	    -13.23263171	     -7.18404526	     35.08207584	     46.23585543	      0.00000000	      0.00000000	      6.57404141	    -12.36291789	     -1.73039130	     62.13598561	     46.64365538	      0.00000000	      0.00000000
     53.26400000	     -1.41772791	     -6.62427785	     -0.75984327	      1.05235615	      0.92639220	      0.51260416	     15.37448269	      3.06213419	    -14.07880065	     20.45417304	     20.45417304	      8.55557435	      0.52509140	     -6.12370999	     16.47576622	    -15.82360145	     -1.40474728	     54.19004553	     54.19004553	      9.63773984	    -18.65305866	      2.81561098	     -9.95722817	      7.17809433	      3.04261983	      7.44727660	    -13.37080900	     -6.94891865	     35.86462288	     46.19437441	      0.00000000	      0.00000000	      6.21376560	    -12.23588312	     -1.70357616	     61.75297754	     46.63642533	      0.00000000	      0.00000000
     53.27700000	     -1.39783727	     -6.52481895	     -0.55383569	      1.05157378	      0.92644431	      0.51449056	     15.08613155	      2.99408754	    -14.38039529	     20.60160027	     20.60160027	      9.04226707	      0.86435790	     -6.08012686	     18.60989688	    -15.58644526	     -0.18992428	     57.25355999	     57.25355999	     10.84930306	    -18.35724405	      9.73287821	    -10.01624835	      7.04439351	      3.15101323	      7.79433631	    -14.14035589	     -4.12756340	     38.78662271	     45.89434222	      0.00000000	      0.00000000	      6.02832603	    -11.91544600	     -2.34361222	     61.00671777	     46.70179463	      0.00000000	      0.00000000
     53.29000000	     -1.24908242	     -6.51773934	     -0.36285376	      1.05074553	      0.92669097	      0.51648922	     14.59792761	      3.10531093	    -14.50711825	     20.59263298	     20.59263298	      9.36726044	      0.86839442	     -6.16228695	     20.19705006	    -15.69259843	      0.45479101	     59.17319999	     59.17319999	      9.85729524	    -18.40518569	      9.82028707	    -10.24795660	      6.96869266	      3.48288825	      9.04918840	    -14.34902377	     -4.10036659	     39.38033063	     45.87775800	      0.00000000	      0.00000000	      5.87576174	    -11.80474898	     -2.29492410	     60.79596634	     46.69514117	      0.00000000	      0.00000000
     53.30300000	     -1.28623768	     -6.53922777	     -0.10640053	      1.04976293	      0.92667227	      0.51823094	     14.34868598	      3.21754051	    -14.68756173	     20.62526523	     20.62526523	      9.62859122	      0.78780099	     -6.20841329	     21.98503186	    -15.77911344	      1.09636037	     60.63202225	     60.63202225	      9.20809058	    -18.40075916	     10.05276534	    -10.23975365	      6.95516653	      3.50086593	     10.23337858	    -14.45616346	     -3.98727997	     40.29699113	     45.84271523	      0.00000000	      0.00000000	      5.45984286	    -11.81168104	     -2.33899785	     60.27510699	     46.69023794	      0.00000000	      0.00000000
     53.31600000	     -1.24773745	     -6.40389354	      0.11719232	      1.04871081	      0.92687244	      0.51979902	     14.04223472	      3.18210531	    -14.65850127	     20.69633733	     20.69633733	      9.99665417	      0.53455235	     -6.01825661	     23.53411164	    -15.67905810	      1.51707776	     61.48144802	     61.48144802	      9.30460889	    -18.27794589	     11.63167848	    -10.37391197	      6.76767750	      3.58036159	     10.88540052	    -15.00224084	     -2.53055500	     43.16124539	     45.65473787	      0.00000000	      0.00000000	      5.32191196	    -11.47025266	     -3.42981344	     59.14814735	     46.77120306	      0.00000000	      0.00000000
